<svg xmlns="http://www.w3.org/2000/svg" width="640" height="276" viewBox="0 0 640 276" role="img" aria-labelledby="title desc">
    <title id="title">RallyUp logo</title><desc id="desc">RallyUp wordmark with tennis trajectory and ball. Transparent background.</desc><g transform="translate(0 0) scale(1)">
    <path d="M 263 137 C 315 73, 400 68, 472 117 C 413 89, 337 90, 267 142 Z" fill="#1F1F1F"/>
    <path d="M 489 135 C 497 121, 507 107, 519 94" fill="none" stroke="#1F1F1F" stroke-width="9" stroke-linecap="round"/>
    <circle cx="548" cy="73" r="31" fill="#A7E632"/><path d="M 520.72 78.58 C 536.22 90.36, 546.45 80.44, 553.58 64.32 C 560.4 50.68, 568.15 53.78, 575.9 58.120000000000005" fill="none" stroke="#F8F8F5" stroke-width="5.5" stroke-linecap="round"/>
  </g>
    <g transform="translate(86 255) scale(0.8325411304094298 -1)" fill="#1F1F1F"><path d="M0.220 0.000 L18.311 109.131 L65.332 109.131 Q77.490 109.131 85.876 104.700 Q94.263 100.269 97.961 91.956 Q101.660 83.643 99.756 72.070 Q97.852 60.718 91.626 52.808 Q85.400 44.897 75.952 40.723 L91.479 0.000 L59.253 0.000 L45.996 36.035 L35.742 36.035 L29.810 0.000 Z M39.551 59.033 L49.951 59.033 Q57.788 59.033 62.732 62.036 Q67.676 65.039 68.848 72.070 Q70.020 79.028 66.101 82.214 Q62.183 85.400 54.346 85.400 L43.945 85.400 Z M130.005 -1.025 Q121.289 -1.025 114.697 3.552 Q108.105 8.130 105.212 17.432 Q102.319 26.733 104.663 40.869 Q107.153 55.737 113.306 65.002 Q119.458 74.268 127.515 78.589 Q135.571 82.910 143.701 82.910 Q152.783 82.910 157.800 78.369 Q162.817 73.828 164.209 67.529 L164.648 67.529 L166.992 81.885 L196.289 81.885 L182.739 0.000 L153.589 0.000 L155.786 13.477 L155.200 13.477 Q151.611 7.251 145.129 3.113 Q138.647 -1.025 130.005 -1.025 Z M144.580 21.533 Q150.659 21.533 155.017 26.770 Q159.375 32.007 160.767 40.869 Q162.305 50.024 159.668 55.188 Q157.031 60.352 150.952 60.352 Q144.946 60.352 140.735 55.188 Q136.523 50.024 134.985 40.869 Q133.521 31.787 136.047 26.660 Q138.574 21.533 144.580 21.533 Z M245.215 109.131 L227.124 0.000 L197.681 0.000 L215.771 109.131 Z M289.600 109.131 L271.509 0.000 L242.065 0.000 L260.156 109.131 Z M281.909 -28.418 L291.797 -7.471 L295.459 -8.496 Q302.344 -10.400 306.885 -8.313 Q311.426 -6.226 310.693 -2.417 L310.254 -0.073 L293.481 81.885 L323.804 81.885 L328.271 44.531 Q328.857 39.331 328.967 34.094 Q329.077 28.857 329.077 23.291 Q331.201 28.931 333.435 34.131 Q335.669 39.331 338.159 44.531 L356.030 81.885 L387.085 81.885 L338.525 -7.471 Q334.937 -14.136 329.810 -19.519 Q324.683 -24.902 317.358 -28.052 Q310.034 -31.201 299.707 -31.201 Q294.653 -31.201 289.893 -30.469 Q285.132 -29.736 281.909 -28.418 Z"/></g><g transform="translate(86 255) scale(0.8325411304094298 -1)" fill="#FFFFFF"><path d="M429.712 -1.318 Q415.283 -1.318 405.176 3.845 Q395.068 9.009 390.527 18.384 Q385.986 27.759 388.037 40.210 L399.463 109.131 L429.053 109.131 L417.773 40.796 Q416.528 33.179 420.227 28.748 Q423.926 24.316 430.957 24.316 Q436.450 24.316 441.174 26.807 Q445.898 29.297 449.084 33.472 Q452.271 37.646 453.076 42.700 L464.063 109.131 L493.652 109.131 L481.934 38.306 Q479.883 25.854 472.705 16.956 Q465.527 8.057 454.468 3.369 Q443.408 -1.318 429.712 -1.318 Z M485.010 -30.615 L503.687 81.885 L532.837 81.885 L530.200 67.529 L530.859 67.529 Q534.302 73.828 540.491 78.369 Q546.680 82.910 555.176 82.910 Q562.500 82.910 568.652 79.541 Q574.805 76.172 578.577 69.067 Q582.349 61.963 582.349 50.830 Q582.349 42.700 580.225 33.691 Q578.101 24.683 573.523 16.809 Q568.945 8.936 561.658 3.955 Q554.370 -1.025 544.043 -1.025 Q534.814 -1.025 529.468 3.552 Q524.121 8.130 522.656 14.355 L521.777 14.355 L514.453 -30.615 Z M533.936 21.533 Q539.063 21.533 542.542 24.426 Q546.021 27.319 548.145 31.714 Q550.269 36.108 551.221 40.723 Q552.173 45.337 552.173 48.853 Q552.173 60.352 543.311 60.352 Q538.770 60.352 535.291 57.825 Q531.812 55.298 529.468 51.233 Q527.124 47.168 525.916 42.480 Q524.707 37.793 524.707 33.472 Q524.707 27.832 527.087 24.683 Q529.468 21.533 533.936 21.533 Z"/></g>
    
  </svg>